<svg id="fe453812-85d4-4315-b7b2-0b62083c7ea3" data-name="Layer 1" xmlns="http://www.w3.org/2000/svg" width="202" height="47.38" viewBox="0 0 202 47.38"><defs><style>.\33 4e7bd83-3635-4d36-9115-436ab9d320e2{fill:#59c6d2;}</style></defs><title>logo</title><path class="34e7bd83-3635-4d36-9115-436ab9d320e2" d="M14.72,21.2a18.72,18.72,0,0,1-7.44-4.3,9,9,0,0,1-2.73-6.61A9,9,0,0,1,7.28,3.74,9,9,0,0,1,13.89,1a9.07,9.07,0,0,1,6.62,2.73A7.7,7.7,0,0,1,22.6,7l-2.23.88a6.72,6.72,0,0,0-1.63-2.48,6.65,6.65,0,0,0-4.85-2,6.61,6.61,0,0,0-4.84,2,6.58,6.58,0,0,0-2,4.87,6.56,6.56,0,0,0,2,4.84,17.87,17.87,0,0,0,5.18,3.39,21.9,21.9,0,0,1,8.89,5.32A12.47,12.47,0,0,1,27,33a12.58,12.58,0,0,1-3.83,9.26,12.55,12.55,0,0,1-9.23,3.83,12.52,12.52,0,0,1-9.23-3.86A12.44,12.44,0,0,1,1,35.17l2.34-.86A10.24,10.24,0,0,0,6.4,40.57a10.23,10.23,0,0,0,7.49,3.11,10.29,10.29,0,0,0,7.53-3.11,10.62,10.62,0,0,0,0-15A20,20,0,0,0,14.72,21.2Z"/><path class="34e7bd83-3635-4d36-9115-436ab9d320e2" d="M34.94,24.59v21H32.46V18.55h2.48v1.74a10.86,10.86,0,0,1,7.88-3.36A10.42,10.42,0,0,1,53.71,27.51v18.1H51.23V27.73a7.92,7.92,0,0,0-2.5-5.89,8.43,8.43,0,0,0-11.8,0A9.43,9.43,0,0,0,34.94,24.59Z"/><path class="34e7bd83-3635-4d36-9115-436ab9d320e2" d="M65.51,9.68a2.34,2.34,0,0,1,.73,1.74,2.48,2.48,0,0,1-2.48,2.48,2.48,2.48,0,0,1-2.48-2.48A2.38,2.38,0,0,1,62,9.68a2.49,2.49,0,0,1,3.5,0ZM65,18.55V45.61H62.52V18.55Z"/><path class="34e7bd83-3635-4d36-9115-436ab9d320e2" d="M77.4,21V45.61H74.92V21H72.17V18.55h2.75V11.22A7.83,7.83,0,0,1,77.27,6a7.39,7.39,0,0,1,5.2-2.09,10.27,10.27,0,0,1,3.25.57L85,6.65a5.65,5.65,0,0,0-2.23-.5A5.47,5.47,0,0,0,79,7.72a5.28,5.28,0,0,0-1.63,3.67v7.16h5.51V21Z"/><path class="34e7bd83-3635-4d36-9115-436ab9d320e2" d="M91.4,21V45.61H88.92V21H86.16V18.55h2.76V11.22A7.86,7.86,0,0,1,91.26,6a7.42,7.42,0,0,1,5.21-2.09,10.27,10.27,0,0,1,3.25.57L99,6.65a5.68,5.68,0,0,0-2.23-.5A5.44,5.44,0,0,0,93,7.72a5.24,5.24,0,0,0-1.63,3.67v7.16h5.51V21Z"/><path class="34e7bd83-3635-4d36-9115-436ab9d320e2" d="M107.38,40.54a11.92,11.92,0,0,0,8.32,3.19,12.09,12.09,0,0,0,8.85-3.66c.31-.31.6-.63.88-1L128,40a15.1,15.1,0,0,1-1.62,1.9,15.13,15.13,0,0,1-21.41,0,14.58,14.58,0,0,1-4.44-10.71A14.55,14.55,0,0,1,105,20.54a15.2,15.2,0,0,1,20.09-1.22c.44.37.88.77,1.32,1.22l.47.49L125,22.9ZM123.2,21.22a12.51,12.51,0,0,0-16.32,1.18,12,12,0,0,0-3.66,8.83,12,12,0,0,0,2.48,7.49Z"/><path class="34e7bd83-3635-4d36-9115-436ab9d320e2" d="M134.66,18.55h2.48v4.93a15.85,15.85,0,0,1,1.79-2.12q3.27-3.27,6.72-3.44v2.7q-2.34.11-4.85,2.62a11.89,11.89,0,0,0-3.66,8.4v14h-2.48Z"/><path class="34e7bd83-3635-4d36-9115-436ab9d320e2" d="M188.17,27h-33a1.86,1.86,0,0,1,0-3.72h33a9.12,9.12,0,1,0-9.12-9.12,1.86,1.86,0,0,1-3.72,0A12.84,12.84,0,1,1,188.17,27Z"/><path class="34e7bd83-3635-4d36-9115-436ab9d320e2" d="M179.39,46.38a7.61,7.61,0,0,1-7.6-7.59,1.86,1.86,0,1,1,3.72,0,3.88,3.88,0,1,0,3.88-3.88H155.12a1.86,1.86,0,1,1,0-3.71h24.27a7.59,7.59,0,1,1,0,15.18Z"/><path class="34e7bd83-3635-4d36-9115-436ab9d320e2" d="M155.12,16.7a1.18,1.18,0,0,1-1.18-1.18V9.73a1.18,1.18,0,1,1,2.36,0v5.79A1.18,1.18,0,0,1,155.12,16.7Z"/><path class="34e7bd83-3635-4d36-9115-436ab9d320e2" d="M161.41,16.7a1.17,1.17,0,0,1-1.17-1.18v-10a1.18,1.18,0,1,1,2.35,0v10A1.18,1.18,0,0,1,161.41,16.7Z"/><path class="34e7bd83-3635-4d36-9115-436ab9d320e2" d="M167.71,16.7a1.18,1.18,0,0,1-1.18-1.18V2.18a1.18,1.18,0,0,1,2.36,0V15.52A1.18,1.18,0,0,1,167.71,16.7Z"/></svg>